<svg id="Layer_1" data-name="Layer 1" xmlns="http://www.w3.org/2000/svg" xmlns:xlink="http://www.w3.org/1999/xlink" viewBox="0 0 1920 1080"><defs><style>.cls-1{fill:url(#linear-gradient);}.cls-2{fill:url(#linear-gradient-2);}.cls-3{fill:#93969d;}.cls-4{fill:#f04b10;}</style><linearGradient id="linear-gradient" x1="120.98" y1="336.86" x2="837.44" y2="336.86" gradientUnits="userSpaceOnUse"><stop offset="0.12" stop-color="#f26326"/><stop offset="0.53" stop-color="#ffe40f"/><stop offset="0.88" stop-color="#f68b1f"/></linearGradient><linearGradient id="linear-gradient-2" x1="171.19" y1="614.03" x2="847.74" y2="614.03" gradientUnits="userSpaceOnUse"><stop offset="0.1" stop-color="#ffe40f"/><stop offset="0.36" stop-color="#f68b1f"/></linearGradient></defs><path class="cls-1" d="M123,555s38-287.35,289.47-363.41c0,0,293.69-109.87,422.58,228.19,0,0,21.79-87.16-66.56-184.81-77.91-86.13-194.69-128.54-309.8-113.12-54.76,7.33-117.48,26.43-181.45,67.62C91.33,309.19,123,555,123,555Z"/><path class="cls-2" d="M251.91,345.82s-97.19,212,59.16,384.54c0,0,159.88,172.56,390.88,44.37,0,0,81.7-38,145.79-116.21,0,0-58.63,155.3-227.59,208.29-129.57,40.63-270.52-1.14-363.73-99.89C174.67,680.32,116.72,541.17,251.91,345.82Z"/><path class="cls-3" d="M214.58,196.51S-37.48,429.39,171.19,745.86,778,833.19,778,833.19s-62.69,93.23-230.56,120.63C416.87,975.14,281.87,944,175.3,865.59,33.23,761-78.4,416.25,214.58,196.51Z"/><path class="cls-3" d="M391.19,615.86a118.56,118.56,0,0,1-27.55-9.42,116.65,116.65,0,0,1-23.94-15.7l19.94-24.49a90.19,90.19,0,0,0,28.73,17,99.78,99.78,0,0,0,34.07,5.65q24.8,0,38.46-9.18t13.66-26v-.16q0-11.92-6.2-18.92a37.06,37.06,0,0,0-16-10.36,177.49,177.49,0,0,0-25.35-6.2,3.11,3.11,0,0,0-1-.16,3,3,0,0,1-1-.16l-2.36-.47q-22.92-3.91-37.28-8.87t-24.58-18.05q-10.2-13.11-10.2-37.29v-.16q0-21.19,9.5-36.19t27.71-22.84Q406,386,431.54,386a109.28,109.28,0,0,1,24.1,2.67A119.5,119.5,0,0,1,479,396.61a135.09,135.09,0,0,1,22.69,13.26l-18.21,25.44a106.92,106.92,0,0,0-26-14.37,74.47,74.47,0,0,0-26-4.79q-23.4,0-36.34,9.35t-13,26.45v.16q0,11.77,6.68,18.52a40.26,40.26,0,0,0,16.64,10,249,249,0,0,0,27.71,6.67,9.89,9.89,0,0,0,1.18.24,10.17,10.17,0,0,1,1.17.24c.53.1,1.1.21,1.73.31l1.73.31q20.71,4.25,34.62,10.05a54,54,0,0,1,23.23,18.76q9.35,13,9.34,35.41v.31q0,20.88-9.89,35.72t-28.65,22.61Q449,619,422.44,619A150.17,150.17,0,0,1,391.19,615.86Z"/><path class="cls-3" d="M670.41,483.59a54.61,54.61,0,0,0-23-24q-15.06-8.24-36.26-8.24t-36.27,8.24a54.61,54.61,0,0,0-23,24q-7.93,15.77-7.93,37.91V548q0,22.46,7.93,38.39a54.9,54.9,0,0,0,23,24.26Q590,619,611.15,619t36.26-8.32a55,55,0,0,0,23-24.1q7.94-15.78,7.93-38.08v-27Q678.34,499.36,670.41,483.59ZM646.32,548.5q0,19-9.19,29.52t-26,10.52q-16.8,0-26-10.52T576,548.5v-27q0-19,9.18-29.36t26-10.36q16.8,0,26,10.36t9.19,29.36Z"/><path class="cls-3" d="M944.06,481.78q-6.51-14.91-19-22.69T895,451.32a47.49,47.49,0,0,0-27.87,8.87q-12,8.43-19.53,23.43c-.24-.61-.46-1.24-.72-1.84q-6.36-14.91-18.45-22.69t-29.2-7.77a47.91,47.91,0,0,0-26.92,8,55.74,55.74,0,0,0-16.41,17V453.68h-32v163h32V513.49q0-15.06,8.56-23.39t24.25-8.32q15.56,0,24,9.42t8.48,26.69v98.75h32V517.73c0-.41,0-.8,0-1.21l0,.11q0-16.63,8.16-25.74t23.08-9.11q16.17,0,25.12,9.42t8.95,26.69v98.75h32V517.73Q950.58,496.7,944.06,481.78Z"/><path class="cls-3" d="M1114.17,479.19a49.57,49.57,0,0,0-22-20.72q-14.45-7.16-34.69-7.15a88.19,88.19,0,0,0-33.68,6.2q-15.15,6.21-24.41,17.35l23.39,16a56.48,56.48,0,0,1,16.56-8.33,62.64,62.64,0,0,1,19.08-3q15.69,0,24.25,8.87t8.56,24.89v6.9h-44.9q-27.63,0-41.29,12.09T991.4,568.6q0,25.44,14.91,37.92T1051.37,619a73.35,73.35,0,0,0,18.37-2.12,45.87,45.87,0,0,0,14.37-6.36,36.5,36.5,0,0,0,7.14-6.41v12.53h30.46V511.92Q1121.71,492.78,1114.17,479.19Zm-32,109.82q-9,3.93-27.39,3.92-16.82,0-25-6t-8.25-18.37q0-11.46,6.2-17T1046.5,546h44.75v30.77Q1091.25,585.08,1082.22,589Z"/><path class="cls-4" d="M1296.62,498.42q-13.89-5.81-34.62-10.05l-1.72-.31c-.63-.1-1.21-.21-1.73-.31a9.89,9.89,0,0,0-1.18-.24,9.75,9.75,0,0,1-1.17-.24,249,249,0,0,1-27.71-6.67,40.36,40.36,0,0,1-16.65-10q-6.67-6.75-6.67-18.52V452q0-17.11,12.95-26.45t36.35-9.35a74.47,74.47,0,0,1,26,4.79,106.92,106.92,0,0,1,26,14.37l18.21-25.44A135.89,135.89,0,0,0,1302,396.61a119.5,119.5,0,0,0-23.39-7.93,109.35,109.35,0,0,0-24.1-2.67q-25.59,0-43.8,7.85T1183,416.7q-9.51,15-9.5,36.19v.16q0,24.18,10.2,37.29t24.57,18.05q14.37,5,37.29,8.87l2.36.47a3,3,0,0,0,1,.16,3.11,3.11,0,0,1,1,.16,177.49,177.49,0,0,1,25.35,6.2,37.06,37.06,0,0,1,16,10.36q6.2,7,6.2,18.92v.16q0,16.8-13.66,26t-38.47,9.18a99.87,99.87,0,0,1-34.07-5.65,90.41,90.41,0,0,1-28.73-17l-19.94,24.49a117,117,0,0,0,24,15.7,118.56,118.56,0,0,0,27.55,9.42,150.07,150.07,0,0,0,31.24,3.14q26.54,0,45.3-7.77t28.65-22.61q9.89-14.83,9.89-35.72v-.31q0-22.46-9.34-35.41A54,54,0,0,0,1296.62,498.42Z"/><path class="cls-4" d="M1407.86,406.26h-32v47.42H1359v28.88h16.8v91.69q0,21.36,9.18,32.27t29,10.91h18.53V587h-15.39a8,8,0,0,1-6.91-3.22c-1.57-2.14-2.35-5.21-2.35-9.18v-92h24.65V453.68h-24.65Z"/><path class="cls-4" d="M1575.22,461.53q-14.45-10.21-34.86-10.21-21.66,0-37,8.95a57.87,57.87,0,0,0-23.47,26.06q-8.08,17.12-8.08,41.29V546q0,23.24,8.4,39.64a56.58,56.58,0,0,0,24.41,24.89q16,8.47,38.62,8.48a77.38,77.38,0,0,0,30.3-6.36,88.61,88.61,0,0,0,27.16-18l-21-21a55.56,55.56,0,0,1-17.11,11,50.46,50.46,0,0,1-19.31,3.93q-19.62,0-30.3-10.83-10.31-10.46-10.65-29.68h102.65V537.36q0-27-7.61-46.32T1575.22,461.53Zm-72.93,60.76q.78-19.21,9.89-30.15,10-11.92,28.18-11.93,14.92,0,23.79,11.07t10.28,31Z"/><path class="cls-4" d="M1747.6,461.53q-14.44-10.21-34.85-10.21-21.68,0-37,8.95a57.87,57.87,0,0,0-23.47,26.06q-8.1,17.12-8.09,41.29V546q0,23.24,8.4,39.64A56.69,56.69,0,0,0,1677,610.52q16,8.47,38.62,8.48a77.39,77.39,0,0,0,30.31-6.36,88.73,88.73,0,0,0,27.16-18l-21-21a55.68,55.68,0,0,1-17.11,11,50.55,50.55,0,0,1-19.32,3.93q-19.62,0-30.3-10.83Q1675,567.26,1674.62,548h102.66V537.36q0-27-7.62-46.32T1747.6,461.53Zm-72.92,60.76q.77-19.21,9.89-30.15,10-11.92,28.18-11.93,14.91,0,23.78,11.07t10.29,31Z"/><path class="cls-4" d="M1863.15,587a8.83,8.83,0,0,1-7.3-3.22c-1.73-2.14-2.59-5.21-2.59-9.18V388.37h-32V574.25q0,20.57,10,31.87t28.18,11.31h18.84V587Z"/></svg>